<svg width="944" height="319" viewBox="0 0 944 319" fill="none" xmlns="http://www.w3.org/2000/svg">
<path fill-rule="evenodd" clip-rule="evenodd" d="M158.271 191.511C184.324 190.621 207.733 190.81 224.537 192.752C232.933 193.723 239.72 195.135 244.371 197.089C248.981 199.026 251.722 201.603 251.499 205.005C249.421 236.693 228.878 264.579 207.302 280.871C195.012 290.152 177.85 299.545 162.017 306.617C154.098 310.153 146.502 313.115 140.004 315.192C133.521 317.264 128.083 318.473 124.5 318.473C118.143 318.473 108.547 316.023 95.5771 310.118C82.5955 304.208 66.1936 294.816 46.2139 280.883C8.04786 254.268 2.17409 221.598 1.00098 205.008L0.967773 204.534L1.43945 204.477C28.5742 201.186 64.4503 197.47 100.516 194.775C102.166 203.669 107.443 208.99 111.438 211.258L102.51 255.402L102.389 256H149.111L148.99 255.402L140.052 211.207C143.95 208.254 146.807 205.376 148.69 201.862C150.219 199.009 151.088 195.765 151.383 191.771C153.697 191.677 155.994 191.589 158.271 191.511Z" fill="#0F2C1E"/>
<path fill-rule="evenodd" clip-rule="evenodd" d="M2.44138 152L249.441 152.5L249.884 152.501L249.936 152.94C251.439 165.457 252.942 178.99 251.439 203.53L251.428 203.72L251.294 203.854L251.002 204.145C242.752 212.396 232.772 222.38 214.377 230.286C198.97 236.908 177.685 242.061 146.595 243.557L140.052 211.207C143.95 208.253 146.807 205.376 148.69 201.861C150.616 198.267 151.5 194.054 151.5 188.5C151.5 181.292 148.044 175.039 143.084 170.598C138.128 166.16 131.637 163.5 125.5 163.5C113.271 163.5 99.9996 173.106 100 189C100 201.417 106.644 208.536 111.437 211.258L104.962 243.272C74.2629 241.227 51.0478 235.117 34.3974 228.086C24.1504 223.759 16.3858 219.081 10.8926 214.784C5.41507 210.5 2.1518 206.56 0.977515 203.689C0.694599 202.998 0.493454 201.908 0.347633 200.551C0.200265 199.179 0.10475 197.486 0.0517341 195.559C-0.0543192 191.702 0.00987887 186.877 0.178687 181.746C0.516352 171.482 1.27493 159.965 1.94236 152.456L1.9824 151.999L2.44138 152Z" fill="#1B442F"/>
<path fill-rule="evenodd" clip-rule="evenodd" d="M243.008 105.402C246.509 122.905 247.513 123.929 250.016 153.958L250.033 154.166L249.898 154.324C242.602 162.877 232.286 172.182 213.571 179.342C198.885 184.96 179.039 189.25 151.441 190.834C151.478 190.083 151.5 189.306 151.5 188.5C151.5 181.292 148.044 175.039 143.084 170.598C138.128 166.16 131.637 163.5 125.5 163.5C113.272 163.5 99.9998 173.106 100 189C100 189.496 100.012 189.984 100.032 190.463C72.248 188.266 50.323 182.825 34.3263 176.527C23.8966 172.421 15.9752 167.947 10.591 163.762C7.89929 161.67 5.83063 159.642 4.40054 157.759C2.97584 155.883 2.15563 154.113 2.02456 152.542C1.91928 151.279 2.16018 148.56 2.59975 145.054C3.04235 141.524 3.69527 137.136 4.43862 132.496C5.92545 123.216 7.77463 112.91 9.02554 106.405L9.10366 106.002L9.51479 106L242.515 105L242.927 104.998L243.008 105.402Z" fill="#286145"/>
<path d="M10.0009 107C3.5 91.5 36.9884 84.8346 53.4884 83.0012C53.4884 83.0012 97.9888 80.5 127.489 80.5C158.989 80.5 199.989 83.0012 199.989 83.0012C225.489 85.5002 244.167 96.5 242 105.5C235.5 132.499 158.489 140.001 126.989 140.001C82.4888 140.001 17.7074 125.374 10.0009 107Z" fill="#3F8261" stroke="#3F8361"/>
<path d="M125.001 0C152.921 0.00215765 171.311 12.3373 182.708 26.9453C194.086 41.5292 198.501 58.3857 198.501 67.5V110.75C199.407 111.435 200.475 112.41 201.341 113.58C202.271 114.836 203.001 116.358 203.001 118.005C203.001 118.632 202.623 119.313 202.009 119.989C201.379 120.683 200.433 121.445 199.146 122.241C196.572 123.835 192.572 125.601 186.825 127.233C175.328 130.499 156.777 133.25 128.497 133C100.227 132.75 79.9382 130.499 66.7041 127.553C60.0907 126.08 55.2157 124.428 51.9814 122.752C50.3653 121.914 49.1356 121.059 48.3037 120.198C47.4738 119.339 47.0002 118.433 47 117.505C47 115.562 47.5226 113.831 48.4033 112.572C49.182 111.459 50.2594 110.696 51.501 110.533V67.4805L51.5029 67.4609C52.3427 56.7957 57.0037 39.9444 68.3086 25.749C79.6296 11.5337 97.6029 -0.00202954 125.001 0ZM125.5 27C109.535 27 98.3643 33.5273 90.8994 41.5977C83.4475 49.6541 79.6907 59.2435 78.5088 65.4062L78.5 65.4521V102.11L79.0977 101.99C95.0478 98.8002 114.133 97.925 131.302 98.2871C148.473 98.6493 163.689 100.248 171.896 101.989L172.5 102.117V65.4736L172.497 65.4473C171.984 60.5711 168.177 50.9751 160.558 42.6006C152.92 34.206 141.418 27 125.5 27Z" fill="#1A402D"/>
<path d="M335.844 134.297V212.5H322.362V134.297H335.844ZM420.138 134.297V212.5H406.656L371.583 156.479V212.5H358.102V134.297H371.583L406.764 190.425V134.297H420.138ZM472.259 134.297V212.5H458.885V134.297H472.259ZM496.805 134.297V145.039H434.554V134.297H496.805ZM563.804 201.812V212.5H522.285V201.812H563.804ZM526.099 134.297V212.5H512.617V134.297H526.099ZM558.379 166.953V177.48H522.285V166.953H558.379ZM563.535 134.297V145.039H522.285V134.297H563.535ZM640.363 172.539V202.402C639.253 203.87 637.517 205.482 635.153 207.236C632.826 208.955 629.729 210.441 625.861 211.694C621.994 212.948 617.178 213.574 611.413 213.574C606.507 213.574 602.014 212.751 597.932 211.104C593.85 209.421 590.323 206.968 587.351 203.745C584.414 200.522 582.141 196.602 580.529 191.982C578.918 187.327 578.112 182.028 578.112 176.084V170.659C578.112 164.751 578.846 159.487 580.314 154.868C581.818 150.213 583.967 146.274 586.76 143.052C589.553 139.829 592.919 137.394 596.857 135.747C600.832 134.064 605.326 133.223 610.339 133.223C616.748 133.223 622.048 134.297 626.237 136.445C630.463 138.558 633.721 141.494 636.013 145.254C638.304 149.014 639.755 153.311 640.363 158.145H627.15C626.721 155.423 625.879 152.988 624.626 150.84C623.409 148.691 621.654 147.008 619.362 145.791C617.106 144.538 614.17 143.911 610.554 143.911C607.438 143.911 604.699 144.502 602.336 145.684C599.973 146.865 598.003 148.602 596.428 150.894C594.888 153.185 593.724 155.978 592.937 159.272C592.149 162.567 591.755 166.326 591.755 170.552V176.084C591.755 180.381 592.202 184.194 593.098 187.524C594.029 190.854 595.354 193.665 597.072 195.957C598.827 198.249 600.957 199.985 603.464 201.167C605.97 202.313 608.799 202.886 611.95 202.886C615.03 202.886 617.554 202.635 619.523 202.134C621.493 201.597 623.05 200.97 624.196 200.254C625.378 199.502 626.291 198.786 626.936 198.105V182.583H610.661V172.539H640.363ZM660.795 134.297H688.456C694.4 134.297 699.467 135.192 703.656 136.982C707.846 138.773 711.05 141.423 713.271 144.932C715.526 148.405 716.654 152.702 716.654 157.822C716.654 161.725 715.938 165.163 714.506 168.135C713.074 171.107 711.05 173.613 708.437 175.654C705.823 177.66 702.707 179.217 699.091 180.327L695.009 182.314H670.141L670.033 171.626H688.671C691.894 171.626 694.579 171.053 696.728 169.907C698.876 168.761 700.487 167.204 701.562 165.234C702.672 163.229 703.227 160.973 703.227 158.467C703.227 155.745 702.689 153.382 701.615 151.377C700.577 149.336 698.965 147.778 696.781 146.704C694.597 145.594 691.822 145.039 688.456 145.039H674.276V212.5H660.795V134.297ZM705.429 212.5L687.06 177.373L701.186 177.319L719.823 211.802V212.5H705.429ZM766.036 144.717L742.672 212.5H728.546L757.979 134.297H767.003L766.036 144.717ZM785.587 212.5L762.169 144.717L761.148 134.297H770.226L799.767 212.5H785.587ZM784.459 183.496V194.185H741.92V183.496H784.459ZM814.021 134.297H841.683C847.627 134.297 852.693 135.192 856.883 136.982C861.072 138.773 864.277 141.423 866.497 144.932C868.753 148.405 869.881 152.702 869.881 157.822C869.881 161.725 869.165 165.163 867.732 168.135C866.3 171.107 864.277 173.613 861.663 175.654C859.049 177.66 855.934 179.217 852.317 180.327L848.235 182.314H823.367L823.26 171.626H841.897C845.12 171.626 847.806 171.053 849.954 169.907C852.103 168.761 853.714 167.204 854.788 165.234C855.898 163.229 856.453 160.973 856.453 158.467C856.453 155.745 855.916 153.382 854.842 151.377C853.803 149.336 852.192 147.778 850.008 146.704C847.824 145.594 845.049 145.039 841.683 145.039H827.503V212.5H814.021V134.297ZM858.655 212.5L840.286 177.373L854.412 177.319L873.05 211.802V212.5H858.655ZM939.995 201.812V212.5H898.477V201.812H939.995ZM902.29 134.297V212.5H888.809V134.297H902.29ZM934.57 166.953V177.48H898.477V166.953H934.57ZM939.727 134.297V145.039H898.477V134.297H939.727Z" fill="#1B432F"/>
<path d="M445.072 256.908C445.072 256.381 444.99 255.912 444.826 255.502C444.674 255.092 444.398 254.717 444 254.377C443.602 254.037 443.039 253.709 442.312 253.393C441.598 253.064 440.684 252.73 439.57 252.391C438.352 252.016 437.227 251.6 436.195 251.143C435.176 250.674 434.285 250.135 433.523 249.525C432.762 248.904 432.17 248.195 431.748 247.398C431.326 246.59 431.115 245.658 431.115 244.604C431.115 243.561 431.332 242.611 431.766 241.756C432.211 240.9 432.838 240.162 433.646 239.541C434.467 238.908 435.434 238.422 436.547 238.082C437.66 237.73 438.891 237.555 440.238 237.555C442.137 237.555 443.771 237.906 445.143 238.609C446.525 239.312 447.586 240.256 448.324 241.439C449.074 242.623 449.449 243.93 449.449 245.359H445.072C445.072 244.516 444.891 243.771 444.527 243.127C444.176 242.471 443.637 241.955 442.91 241.58C442.195 241.205 441.287 241.018 440.186 241.018C439.143 241.018 438.275 241.176 437.584 241.492C436.893 241.809 436.377 242.236 436.037 242.775C435.697 243.314 435.527 243.924 435.527 244.604C435.527 245.084 435.639 245.523 435.861 245.922C436.084 246.309 436.424 246.672 436.881 247.012C437.338 247.34 437.912 247.65 438.604 247.943C439.295 248.236 440.109 248.518 441.047 248.787C442.465 249.209 443.701 249.678 444.756 250.193C445.811 250.697 446.689 251.271 447.393 251.916C448.096 252.561 448.623 253.293 448.975 254.113C449.326 254.922 449.502 255.842 449.502 256.873C449.502 257.951 449.285 258.924 448.852 259.791C448.418 260.646 447.797 261.379 446.988 261.988C446.191 262.586 445.23 263.049 444.105 263.377C442.992 263.693 441.75 263.852 440.379 263.852C439.148 263.852 437.936 263.688 436.74 263.359C435.557 263.031 434.479 262.533 433.506 261.865C432.533 261.186 431.76 260.342 431.186 259.334C430.611 258.314 430.324 257.125 430.324 255.766H434.736C434.736 256.598 434.877 257.307 435.158 257.893C435.451 258.479 435.855 258.959 436.371 259.334C436.887 259.697 437.484 259.967 438.164 260.143C438.855 260.318 439.594 260.406 440.379 260.406C441.41 260.406 442.271 260.26 442.963 259.967C443.666 259.674 444.193 259.264 444.545 258.736C444.896 258.209 445.072 257.6 445.072 256.908ZM453.974 254.201V253.797C453.974 252.426 454.173 251.154 454.571 249.982C454.97 248.799 455.544 247.773 456.294 246.906C457.056 246.027 457.982 245.348 459.071 244.867C460.173 244.375 461.415 244.129 462.798 244.129C464.193 244.129 465.435 244.375 466.525 244.867C467.626 245.348 468.558 246.027 469.32 246.906C470.081 247.773 470.661 248.799 471.06 249.982C471.458 251.154 471.657 252.426 471.657 253.797V254.201C471.657 255.572 471.458 256.844 471.06 258.016C470.661 259.188 470.081 260.213 469.32 261.092C468.558 261.959 467.632 262.639 466.542 263.131C465.452 263.611 464.216 263.852 462.833 263.852C461.439 263.852 460.191 263.611 459.089 263.131C457.999 262.639 457.073 261.959 456.312 261.092C455.55 260.213 454.97 259.188 454.571 258.016C454.173 256.844 453.974 255.572 453.974 254.201ZM458.21 253.797V254.201C458.21 255.057 458.298 255.865 458.474 256.627C458.65 257.389 458.925 258.057 459.3 258.631C459.675 259.205 460.155 259.656 460.741 259.984C461.327 260.312 462.025 260.477 462.833 260.477C463.618 260.477 464.298 260.312 464.872 259.984C465.458 259.656 465.939 259.205 466.314 258.631C466.689 258.057 466.964 257.389 467.14 256.627C467.327 255.865 467.421 255.057 467.421 254.201V253.797C467.421 252.953 467.327 252.156 467.14 251.406C466.964 250.645 466.683 249.971 466.296 249.385C465.921 248.799 465.441 248.342 464.855 248.014C464.28 247.674 463.595 247.504 462.798 247.504C462.001 247.504 461.31 247.674 460.724 248.014C460.15 248.342 459.675 248.799 459.3 249.385C458.925 249.971 458.65 250.645 458.474 251.406C458.298 252.156 458.21 252.953 458.21 253.797ZM481.543 236.5V263.5H477.289V236.5H481.543ZM499.427 259.018V244.48H503.681V263.5H499.673L499.427 259.018ZM500.025 255.062L501.449 255.027C501.449 256.305 501.308 257.482 501.027 258.561C500.746 259.627 500.312 260.559 499.726 261.355C499.14 262.141 498.39 262.756 497.476 263.201C496.562 263.635 495.466 263.852 494.189 263.852C493.263 263.852 492.414 263.717 491.64 263.447C490.867 263.178 490.199 262.762 489.636 262.199C489.086 261.637 488.658 260.904 488.353 260.002C488.048 259.1 487.896 258.021 487.896 256.768V244.48H492.132V256.803C492.132 257.494 492.214 258.074 492.379 258.543C492.543 259 492.765 259.369 493.046 259.65C493.328 259.932 493.656 260.131 494.031 260.248C494.406 260.365 494.804 260.424 495.226 260.424C496.433 260.424 497.382 260.189 498.074 259.721C498.777 259.24 499.275 258.596 499.568 257.787C499.873 256.979 500.025 256.07 500.025 255.062ZM517.593 260.477C518.284 260.477 518.905 260.342 519.456 260.072C520.018 259.791 520.47 259.404 520.809 258.912C521.161 258.42 521.354 257.852 521.389 257.207H525.38C525.356 258.438 524.993 259.557 524.29 260.564C523.587 261.572 522.655 262.375 521.495 262.973C520.335 263.559 519.052 263.852 517.645 263.852C516.192 263.852 514.927 263.605 513.848 263.113C512.77 262.609 511.874 261.918 511.159 261.039C510.444 260.16 509.905 259.146 509.542 257.998C509.19 256.85 509.014 255.619 509.014 254.307V253.691C509.014 252.379 509.19 251.148 509.542 250C509.905 248.84 510.444 247.82 511.159 246.941C511.874 246.062 512.77 245.377 513.848 244.885C514.927 244.381 516.186 244.129 517.628 244.129C519.151 244.129 520.487 244.434 521.636 245.043C522.784 245.641 523.686 246.479 524.343 247.557C525.011 248.623 525.356 249.865 525.38 251.283H521.389C521.354 250.58 521.179 249.947 520.862 249.385C520.557 248.811 520.124 248.354 519.561 248.014C519.011 247.674 518.348 247.504 517.575 247.504C516.72 247.504 516.011 247.68 515.448 248.031C514.886 248.371 514.446 248.84 514.13 249.438C513.813 250.023 513.585 250.686 513.444 251.424C513.315 252.15 513.251 252.906 513.251 253.691V254.307C513.251 255.092 513.315 255.854 513.444 256.592C513.573 257.33 513.796 257.992 514.112 258.578C514.44 259.152 514.886 259.615 515.448 259.967C516.011 260.307 516.725 260.477 517.593 260.477ZM515.729 263.535H518.876L518.665 264.52C519.333 264.637 519.942 264.918 520.493 265.363C521.055 265.82 521.337 266.553 521.337 267.561C521.337 268.158 521.214 268.697 520.968 269.178C520.721 269.658 520.352 270.068 519.86 270.408C519.38 270.76 518.776 271.029 518.05 271.217C517.335 271.404 516.503 271.498 515.554 271.498L515.43 269.107C515.887 269.107 516.298 269.049 516.661 268.932C517.024 268.826 517.311 268.656 517.522 268.422C517.745 268.188 517.856 267.883 517.856 267.508C517.856 267.145 517.762 266.863 517.575 266.664C517.387 266.465 517.095 266.312 516.696 266.207C516.309 266.102 515.805 266.025 515.184 265.979L515.729 263.535ZM529.623 254.201V253.797C529.623 252.426 529.822 251.154 530.221 249.982C530.619 248.799 531.193 247.773 531.943 246.906C532.705 246.027 533.631 245.348 534.721 244.867C535.822 244.375 537.064 244.129 538.447 244.129C539.842 244.129 541.084 244.375 542.174 244.867C543.275 245.348 544.207 246.027 544.969 246.906C545.73 247.773 546.311 248.799 546.709 249.982C547.107 251.154 547.307 252.426 547.307 253.797V254.201C547.307 255.572 547.107 256.844 546.709 258.016C546.311 259.188 545.73 260.213 544.969 261.092C544.207 261.959 543.281 262.639 542.191 263.131C541.102 263.611 539.865 263.852 538.482 263.852C537.088 263.852 535.84 263.611 534.738 263.131C533.648 262.639 532.723 261.959 531.961 261.092C531.199 260.213 530.619 259.188 530.221 258.016C529.822 256.844 529.623 255.572 529.623 254.201ZM533.859 253.797V254.201C533.859 255.057 533.947 255.865 534.123 256.627C534.299 257.389 534.574 258.057 534.949 258.631C535.324 259.205 535.805 259.656 536.391 259.984C536.977 260.312 537.674 260.477 538.482 260.477C539.268 260.477 539.947 260.312 540.521 259.984C541.107 259.656 541.588 259.205 541.963 258.631C542.338 258.057 542.613 257.389 542.789 256.627C542.977 255.865 543.07 255.057 543.07 254.201V253.797C543.07 252.953 542.977 252.156 542.789 251.406C542.613 250.645 542.332 249.971 541.945 249.385C541.57 248.799 541.09 248.342 540.504 248.014C539.93 247.674 539.244 247.504 538.447 247.504C537.65 247.504 536.959 247.674 536.373 248.014C535.799 248.342 535.324 248.799 534.949 249.385C534.574 249.971 534.299 250.645 534.123 251.406C533.947 252.156 533.859 252.953 533.859 253.797ZM542.227 236.711L544.811 236.904C544.811 237.76 544.641 238.527 544.301 239.207C543.961 239.875 543.498 240.402 542.912 240.789C542.326 241.176 541.664 241.369 540.926 241.369C540.352 241.369 539.865 241.287 539.467 241.123C539.068 240.959 538.705 240.771 538.377 240.561C538.049 240.35 537.709 240.168 537.357 240.016C537.018 239.852 536.613 239.77 536.145 239.77C535.699 239.77 535.318 239.934 535.002 240.262C534.697 240.59 534.545 241.029 534.545 241.58L531.943 241.439C531.943 240.596 532.113 239.834 532.453 239.154C532.793 238.475 533.256 237.936 533.842 237.537C534.428 237.139 535.09 236.939 535.828 236.939C536.309 236.939 536.742 237.021 537.129 237.186C537.527 237.338 537.902 237.52 538.254 237.73C538.617 237.941 538.986 238.129 539.361 238.293C539.736 238.457 540.152 238.539 540.609 238.539C541.055 238.539 541.436 238.369 541.752 238.029C542.068 237.689 542.227 237.25 542.227 236.711ZM561.042 263.852C559.636 263.852 558.364 263.623 557.228 263.166C556.103 262.697 555.142 262.047 554.345 261.215C553.56 260.383 552.956 259.404 552.534 258.279C552.113 257.154 551.902 255.941 551.902 254.641V253.938C551.902 252.449 552.118 251.102 552.552 249.895C552.986 248.688 553.589 247.656 554.363 246.801C555.136 245.934 556.05 245.271 557.105 244.814C558.159 244.357 559.302 244.129 560.532 244.129C561.892 244.129 563.081 244.357 564.101 244.814C565.12 245.271 565.964 245.916 566.632 246.748C567.312 247.568 567.816 248.547 568.144 249.684C568.484 250.82 568.654 252.074 568.654 253.445V255.256H553.958V252.215H564.47V251.881C564.446 251.119 564.294 250.404 564.013 249.736C563.743 249.068 563.327 248.529 562.765 248.119C562.202 247.709 561.452 247.504 560.515 247.504C559.812 247.504 559.185 247.656 558.634 247.961C558.095 248.254 557.644 248.682 557.28 249.244C556.917 249.807 556.636 250.486 556.437 251.283C556.249 252.068 556.155 252.953 556.155 253.938V254.641C556.155 255.473 556.267 256.246 556.489 256.961C556.724 257.664 557.064 258.279 557.509 258.807C557.954 259.334 558.493 259.75 559.126 260.055C559.759 260.348 560.48 260.494 561.288 260.494C562.308 260.494 563.216 260.289 564.013 259.879C564.81 259.469 565.501 258.889 566.087 258.139L568.32 260.301C567.909 260.898 567.376 261.473 566.72 262.023C566.064 262.562 565.261 263.002 564.312 263.342C563.374 263.682 562.284 263.852 561.042 263.852ZM584.428 258.35C584.428 257.928 584.323 257.547 584.112 257.207C583.901 256.855 583.496 256.539 582.899 256.258C582.313 255.977 581.446 255.719 580.297 255.484C579.289 255.262 578.364 254.998 577.52 254.693C576.688 254.377 575.973 253.996 575.375 253.551C574.778 253.105 574.315 252.578 573.987 251.969C573.659 251.359 573.495 250.656 573.495 249.859C573.495 249.086 573.664 248.354 574.004 247.662C574.344 246.971 574.83 246.361 575.463 245.834C576.096 245.307 576.864 244.891 577.766 244.586C578.68 244.281 579.7 244.129 580.825 244.129C582.418 244.129 583.784 244.398 584.92 244.938C586.069 245.465 586.948 246.186 587.557 247.1C588.166 248.002 588.471 249.021 588.471 250.158H584.235C584.235 249.654 584.106 249.186 583.848 248.752C583.602 248.307 583.227 247.949 582.723 247.68C582.219 247.398 581.586 247.258 580.825 247.258C580.098 247.258 579.495 247.375 579.014 247.609C578.545 247.832 578.194 248.125 577.959 248.488C577.737 248.852 577.625 249.25 577.625 249.684C577.625 250 577.684 250.287 577.801 250.545C577.93 250.791 578.141 251.02 578.434 251.23C578.727 251.43 579.125 251.617 579.629 251.793C580.145 251.969 580.789 252.139 581.563 252.303C583.016 252.607 584.264 253 585.307 253.48C586.362 253.949 587.17 254.559 587.733 255.309C588.295 256.047 588.577 256.984 588.577 258.121C588.577 258.965 588.395 259.738 588.032 260.441C587.68 261.133 587.164 261.736 586.485 262.252C585.805 262.756 584.991 263.148 584.041 263.43C583.104 263.711 582.049 263.852 580.877 263.852C579.155 263.852 577.696 263.547 576.5 262.938C575.305 262.316 574.397 261.525 573.776 260.564C573.166 259.592 572.862 258.584 572.862 257.541H576.957C577.004 258.326 577.221 258.953 577.608 259.422C578.006 259.879 578.498 260.213 579.084 260.424C579.682 260.623 580.297 260.723 580.93 260.723C581.692 260.723 582.33 260.623 582.846 260.424C583.362 260.213 583.754 259.932 584.024 259.58C584.293 259.217 584.428 258.807 584.428 258.35ZM620.389 255.168H624.784C624.643 256.844 624.175 258.338 623.378 259.65C622.581 260.951 621.462 261.977 620.02 262.727C618.579 263.477 616.827 263.852 614.764 263.852C613.182 263.852 611.759 263.57 610.493 263.008C609.227 262.434 608.143 261.625 607.241 260.582C606.339 259.527 605.647 258.256 605.167 256.768C604.698 255.279 604.464 253.615 604.464 251.775V249.648C604.464 247.809 604.704 246.145 605.184 244.656C605.677 243.168 606.38 241.896 607.294 240.842C608.208 239.775 609.304 238.961 610.581 238.398C611.87 237.836 613.317 237.555 614.923 237.555C616.962 237.555 618.684 237.93 620.091 238.68C621.497 239.43 622.587 240.467 623.36 241.791C624.145 243.115 624.626 244.633 624.802 246.344H620.407C620.29 245.242 620.032 244.299 619.634 243.514C619.247 242.729 618.673 242.131 617.911 241.721C617.149 241.299 616.153 241.088 614.923 241.088C613.915 241.088 613.036 241.275 612.286 241.65C611.536 242.025 610.909 242.576 610.405 243.303C609.901 244.029 609.52 244.926 609.263 245.992C609.016 247.047 608.893 248.254 608.893 249.613V251.775C608.893 253.064 609.005 254.236 609.227 255.291C609.462 256.334 609.813 257.23 610.282 257.98C610.763 258.73 611.372 259.311 612.11 259.721C612.848 260.131 613.733 260.336 614.764 260.336C616.018 260.336 617.032 260.137 617.805 259.738C618.591 259.34 619.182 258.76 619.581 257.998C619.991 257.225 620.261 256.281 620.389 255.168ZM629.361 254.201V253.797C629.361 252.426 629.561 251.154 629.959 249.982C630.357 248.799 630.932 247.773 631.682 246.906C632.443 246.027 633.369 245.348 634.459 244.867C635.561 244.375 636.803 244.129 638.186 244.129C639.58 244.129 640.822 244.375 641.912 244.867C643.014 245.348 643.945 246.027 644.707 246.906C645.469 247.773 646.049 248.799 646.447 249.982C646.846 251.154 647.045 252.426 647.045 253.797V254.201C647.045 255.572 646.846 256.844 646.447 258.016C646.049 259.188 645.469 260.213 644.707 261.092C643.945 261.959 643.02 262.639 641.93 263.131C640.84 263.611 639.604 263.852 638.221 263.852C636.826 263.852 635.578 263.611 634.477 263.131C633.387 262.639 632.461 261.959 631.699 261.092C630.938 260.213 630.357 259.188 629.959 258.016C629.561 256.844 629.361 255.572 629.361 254.201ZM633.598 253.797V254.201C633.598 255.057 633.686 255.865 633.861 256.627C634.037 257.389 634.312 258.057 634.688 258.631C635.062 259.205 635.543 259.656 636.129 259.984C636.715 260.312 637.412 260.477 638.221 260.477C639.006 260.477 639.686 260.312 640.26 259.984C640.846 259.656 641.326 259.205 641.701 258.631C642.076 258.057 642.352 257.389 642.527 256.627C642.715 255.865 642.809 255.057 642.809 254.201V253.797C642.809 252.953 642.715 252.156 642.527 251.406C642.352 250.645 642.07 249.971 641.684 249.385C641.309 248.799 640.828 248.342 640.242 248.014C639.668 247.674 638.982 247.504 638.186 247.504C637.389 247.504 636.697 247.674 636.111 248.014C635.537 248.342 635.062 248.799 634.688 249.385C634.312 249.971 634.037 250.645 633.861 251.406C633.686 252.156 633.598 252.953 633.598 253.797ZM656.65 248.102V263.5H652.413V244.48H656.456L656.65 248.102ZM662.468 244.357L662.433 248.295C662.175 248.248 661.894 248.213 661.589 248.189C661.296 248.166 661.003 248.154 660.71 248.154C659.984 248.154 659.345 248.26 658.794 248.471C658.243 248.67 657.78 248.963 657.405 249.35C657.042 249.725 656.761 250.182 656.562 250.721C656.362 251.26 656.245 251.863 656.21 252.531L655.243 252.602C655.243 251.406 655.361 250.299 655.595 249.279C655.829 248.26 656.181 247.363 656.65 246.59C657.13 245.816 657.728 245.213 658.443 244.779C659.169 244.346 660.007 244.129 660.956 244.129C661.214 244.129 661.489 244.152 661.782 244.199C662.087 244.246 662.316 244.299 662.468 244.357ZM671.176 248.137V270.812H666.94V244.48H670.842L671.176 248.137ZM683.569 253.814V254.184C683.569 255.566 683.405 256.85 683.077 258.033C682.76 259.205 682.286 260.23 681.653 261.109C681.032 261.977 680.264 262.65 679.35 263.131C678.436 263.611 677.381 263.852 676.186 263.852C675.002 263.852 673.965 263.635 673.075 263.201C672.196 262.756 671.452 262.129 670.842 261.32C670.233 260.512 669.741 259.562 669.366 258.473C669.002 257.371 668.745 256.164 668.592 254.852V253.428C668.745 252.033 669.002 250.768 669.366 249.631C669.741 248.494 670.233 247.516 670.842 246.695C671.452 245.875 672.196 245.242 673.075 244.797C673.954 244.352 674.979 244.129 676.151 244.129C677.346 244.129 678.407 244.363 679.332 244.832C680.258 245.289 681.038 245.945 681.67 246.801C682.303 247.645 682.778 248.664 683.094 249.859C683.411 251.043 683.569 252.361 683.569 253.814ZM679.332 254.184V253.814C679.332 252.936 679.25 252.121 679.086 251.371C678.922 250.609 678.664 249.941 678.313 249.367C677.961 248.793 677.51 248.348 676.959 248.031C676.42 247.703 675.77 247.539 675.008 247.539C674.258 247.539 673.614 247.668 673.075 247.926C672.536 248.172 672.084 248.518 671.721 248.963C671.358 249.408 671.077 249.93 670.877 250.527C670.678 251.113 670.538 251.752 670.455 252.443V255.854C670.596 256.697 670.836 257.471 671.176 258.174C671.516 258.877 671.996 259.439 672.618 259.861C673.25 260.271 674.059 260.477 675.043 260.477C675.805 260.477 676.455 260.312 676.995 259.984C677.534 259.656 677.973 259.205 678.313 258.631C678.664 258.045 678.922 257.371 679.086 256.609C679.25 255.848 679.332 255.039 679.332 254.184ZM688.164 254.201V253.797C688.164 252.426 688.363 251.154 688.761 249.982C689.16 248.799 689.734 247.773 690.484 246.906C691.246 246.027 692.171 245.348 693.261 244.867C694.363 244.375 695.605 244.129 696.988 244.129C698.382 244.129 699.625 244.375 700.714 244.867C701.816 245.348 702.748 246.027 703.509 246.906C704.271 247.773 704.851 248.799 705.25 249.982C705.648 251.154 705.847 252.426 705.847 253.797V254.201C705.847 255.572 705.648 256.844 705.25 258.016C704.851 259.188 704.271 260.213 703.509 261.092C702.748 261.959 701.822 262.639 700.732 263.131C699.642 263.611 698.406 263.852 697.023 263.852C695.629 263.852 694.38 263.611 693.279 263.131C692.189 262.639 691.263 261.959 690.502 261.092C689.74 260.213 689.16 259.188 688.761 258.016C688.363 256.844 688.164 255.572 688.164 254.201ZM692.4 253.797V254.201C692.4 255.057 692.488 255.865 692.664 256.627C692.839 257.389 693.115 258.057 693.49 258.631C693.865 259.205 694.345 259.656 694.931 259.984C695.517 260.312 696.214 260.477 697.023 260.477C697.808 260.477 698.488 260.312 699.062 259.984C699.648 259.656 700.129 259.205 700.504 258.631C700.879 258.057 701.154 257.389 701.33 256.627C701.517 255.865 701.611 255.057 701.611 254.201V253.797C701.611 252.953 701.517 252.156 701.33 251.406C701.154 250.645 700.873 249.971 700.486 249.385C700.111 248.799 699.63 248.342 699.045 248.014C698.47 247.674 697.785 247.504 696.988 247.504C696.191 247.504 695.5 247.674 694.914 248.014C694.339 248.342 693.865 248.799 693.49 249.385C693.115 249.971 692.839 250.645 692.664 251.406C692.488 252.156 692.4 252.953 692.4 253.797ZM715.452 248.102V263.5H711.216V244.48H715.259L715.452 248.102ZM721.27 244.357L721.235 248.295C720.977 248.248 720.696 248.213 720.391 248.189C720.098 248.166 719.805 248.154 719.513 248.154C718.786 248.154 718.147 248.26 717.596 248.471C717.046 248.67 716.583 248.963 716.208 249.35C715.845 249.725 715.563 250.182 715.364 250.721C715.165 251.26 715.048 251.863 715.013 252.531L714.046 252.602C714.046 251.406 714.163 250.299 714.397 249.279C714.632 248.26 714.983 247.363 715.452 246.59C715.932 245.816 716.53 245.213 717.245 244.779C717.971 244.346 718.809 244.129 719.759 244.129C720.016 244.129 720.292 244.152 720.585 244.199C720.889 244.246 721.118 244.299 721.27 244.357ZM735.814 259.686V250.615C735.814 249.936 735.691 249.35 735.445 248.857C735.199 248.365 734.824 247.984 734.32 247.715C733.828 247.445 733.207 247.311 732.457 247.311C731.766 247.311 731.168 247.428 730.664 247.662C730.16 247.896 729.768 248.213 729.486 248.611C729.205 249.01 729.064 249.461 729.064 249.965H724.846C724.846 249.215 725.027 248.488 725.391 247.785C725.754 247.082 726.281 246.455 726.973 245.904C727.664 245.354 728.49 244.92 729.451 244.604C730.412 244.287 731.49 244.129 732.686 244.129C734.115 244.129 735.381 244.369 736.482 244.85C737.596 245.33 738.469 246.057 739.102 247.029C739.746 247.99 740.068 249.197 740.068 250.65V259.105C740.068 259.973 740.127 260.752 740.244 261.443C740.373 262.123 740.555 262.715 740.789 263.219V263.5H736.447C736.248 263.043 736.09 262.463 735.973 261.76C735.867 261.045 735.814 260.354 735.814 259.686ZM736.43 251.934L736.465 254.553H733.424C732.639 254.553 731.947 254.629 731.35 254.781C730.752 254.922 730.254 255.133 729.855 255.414C729.457 255.695 729.158 256.035 728.959 256.434C728.76 256.832 728.66 257.283 728.66 257.787C728.66 258.291 728.777 258.754 729.012 259.176C729.246 259.586 729.586 259.908 730.031 260.143C730.488 260.377 731.039 260.494 731.684 260.494C732.551 260.494 733.307 260.318 733.951 259.967C734.607 259.604 735.123 259.164 735.498 258.648C735.873 258.121 736.072 257.623 736.096 257.154L737.467 259.035C737.326 259.516 737.086 260.031 736.746 260.582C736.406 261.133 735.961 261.66 735.41 262.164C734.871 262.656 734.221 263.061 733.459 263.377C732.709 263.693 731.842 263.852 730.857 263.852C729.615 263.852 728.508 263.605 727.535 263.113C726.562 262.609 725.801 261.936 725.25 261.092C724.699 260.236 724.424 259.27 724.424 258.191C724.424 257.184 724.611 256.293 724.986 255.52C725.373 254.734 725.936 254.078 726.674 253.551C727.424 253.023 728.338 252.625 729.416 252.355C730.494 252.074 731.725 251.934 733.107 251.934H736.43ZM755.017 244.48V247.574H744.294V244.48H755.017ZM747.388 239.822H751.624V258.244C751.624 258.83 751.706 259.281 751.87 259.598C752.046 259.902 752.286 260.107 752.591 260.213C752.896 260.318 753.253 260.371 753.663 260.371C753.956 260.371 754.237 260.354 754.507 260.318C754.777 260.283 754.993 260.248 755.157 260.213L755.175 263.447C754.823 263.553 754.413 263.646 753.945 263.729C753.487 263.811 752.96 263.852 752.362 263.852C751.39 263.852 750.529 263.682 749.779 263.342C749.029 262.99 748.443 262.422 748.021 261.637C747.599 260.852 747.388 259.809 747.388 258.508V239.822ZM764.621 244.48V263.5H760.368V244.48H764.621ZM760.086 239.488C760.086 238.844 760.297 238.311 760.719 237.889C761.153 237.455 761.75 237.238 762.512 237.238C763.262 237.238 763.854 237.455 764.288 237.889C764.721 238.311 764.938 238.844 764.938 239.488C764.938 240.121 764.721 240.648 764.288 241.07C763.854 241.492 763.262 241.703 762.512 241.703C761.75 241.703 761.153 241.492 760.719 241.07C760.297 240.648 760.086 240.121 760.086 239.488ZM777.25 260.143L781.908 244.48H786.302L779.693 263.5H776.951L777.25 260.143ZM773.681 244.48L778.427 260.213L778.656 263.5H775.914L769.269 244.48H773.681ZM801.163 259.686V250.615C801.163 249.936 801.04 249.35 800.794 248.857C800.548 248.365 800.173 247.984 799.669 247.715C799.177 247.445 798.555 247.311 797.805 247.311C797.114 247.311 796.516 247.428 796.013 247.662C795.509 247.896 795.116 248.213 794.835 248.611C794.554 249.01 794.413 249.461 794.413 249.965H790.194C790.194 249.215 790.376 248.488 790.739 247.785C791.102 247.082 791.63 246.455 792.321 245.904C793.013 245.354 793.839 244.92 794.8 244.604C795.761 244.287 796.839 244.129 798.034 244.129C799.464 244.129 800.729 244.369 801.831 244.85C802.944 245.33 803.817 246.057 804.45 247.029C805.095 247.99 805.417 249.197 805.417 250.65V259.105C805.417 259.973 805.475 260.752 805.593 261.443C805.721 262.123 805.903 262.715 806.138 263.219V263.5H801.796C801.596 263.043 801.438 262.463 801.321 261.76C801.216 261.045 801.163 260.354 801.163 259.686ZM801.778 251.934L801.813 254.553H798.772C797.987 254.553 797.296 254.629 796.698 254.781C796.1 254.922 795.602 255.133 795.204 255.414C794.805 255.695 794.507 256.035 794.307 256.434C794.108 256.832 794.009 257.283 794.009 257.787C794.009 258.291 794.126 258.754 794.36 259.176C794.595 259.586 794.934 259.908 795.38 260.143C795.837 260.377 796.388 260.494 797.032 260.494C797.899 260.494 798.655 260.318 799.3 259.967C799.956 259.604 800.471 259.164 800.846 258.648C801.221 258.121 801.421 257.623 801.444 257.154L802.815 259.035C802.675 259.516 802.434 260.031 802.095 260.582C801.755 261.133 801.309 261.66 800.759 262.164C800.22 262.656 799.569 263.061 798.807 263.377C798.057 263.693 797.19 263.852 796.206 263.852C794.964 263.852 793.856 263.605 792.884 263.113C791.911 262.609 791.149 261.936 790.598 261.092C790.048 260.236 789.772 259.27 789.772 258.191C789.772 257.184 789.96 256.293 790.335 255.52C790.721 254.734 791.284 254.078 792.022 253.551C792.772 253.023 793.686 252.625 794.764 252.355C795.843 252.074 797.073 251.934 798.456 251.934H801.778ZM822.316 258.35C822.316 257.928 822.211 257.547 822 257.207C821.789 256.855 821.385 256.539 820.787 256.258C820.201 255.977 819.334 255.719 818.186 255.484C817.178 255.262 816.252 254.998 815.408 254.693C814.576 254.377 813.861 253.996 813.264 253.551C812.666 253.105 812.203 252.578 811.875 251.969C811.547 251.359 811.383 250.656 811.383 249.859C811.383 249.086 811.553 248.354 811.893 247.662C812.232 246.971 812.719 246.361 813.352 245.834C813.984 245.307 814.752 244.891 815.654 244.586C816.568 244.281 817.588 244.129 818.713 244.129C820.307 244.129 821.672 244.398 822.809 244.938C823.957 245.465 824.836 246.186 825.445 247.1C826.055 248.002 826.359 249.021 826.359 250.158H822.123C822.123 249.654 821.994 249.186 821.736 248.752C821.49 248.307 821.115 247.949 820.611 247.68C820.107 247.398 819.475 247.258 818.713 247.258C817.986 247.258 817.383 247.375 816.902 247.609C816.434 247.832 816.082 248.125 815.848 248.488C815.625 248.852 815.514 249.25 815.514 249.684C815.514 250 815.572 250.287 815.689 250.545C815.818 250.791 816.029 251.02 816.322 251.23C816.615 251.43 817.014 251.617 817.518 251.793C818.033 251.969 818.678 252.139 819.451 252.303C820.904 252.607 822.152 253 823.195 253.48C824.25 253.949 825.059 254.559 825.621 255.309C826.184 256.047 826.465 256.984 826.465 258.121C826.465 258.965 826.283 259.738 825.92 260.441C825.568 261.133 825.053 261.736 824.373 262.252C823.693 262.756 822.879 263.148 821.93 263.43C820.992 263.711 819.938 263.852 818.766 263.852C817.043 263.852 815.584 263.547 814.389 262.938C813.193 262.316 812.285 261.525 811.664 260.564C811.055 259.592 810.75 258.584 810.75 257.541H814.846C814.893 258.326 815.109 258.953 815.496 259.422C815.895 259.879 816.387 260.213 816.973 260.424C817.57 260.623 818.186 260.723 818.818 260.723C819.58 260.723 820.219 260.623 820.734 260.424C821.25 260.213 821.643 259.932 821.912 259.58C822.182 259.217 822.316 258.807 822.316 258.35Z" fill="#1B432F"/>
</svg>
