<svg width="944" height="319" viewBox="0 0 944 319" fill="none" xmlns="http://www.w3.org/2000/svg">
<path d="M158.271 191.511C184.324 190.621 207.733 190.81 224.537 192.752C232.933 193.723 239.72 195.135 244.371 197.089C248.981 199.026 251.722 201.603 251.499 205.005C249.421 236.693 228.878 264.579 207.302 280.871C195.012 290.152 177.85 299.545 162.017 306.617C154.098 310.153 146.502 313.115 140.004 315.192C133.521 317.264 128.083 318.473 124.5 318.473C118.143 318.473 108.547 316.023 95.5771 310.118C82.5955 304.208 66.1936 294.816 46.2139 280.883C8.04786 254.268 2.17409 221.598 1.00098 205.008L0.967773 204.534L1.43945 204.477C28.5742 201.186 64.4503 197.47 100.516 194.775C102.166 203.669 107.443 208.99 111.438 211.258L102.51 255.402L102.389 256H149.111L148.99 255.402L140.052 211.207C143.95 208.254 146.807 205.376 148.69 201.862C150.219 199.009 151.088 195.765 151.383 191.771C153.697 191.677 155.994 191.589 158.271 191.511Z" fill="#0F2C1E"/>
<path d="M2.44138 152L249.441 152.5L249.884 152.501L249.936 152.94C251.439 165.457 252.942 178.99 251.439 203.53L251.428 203.72L251.294 203.854L251.002 204.145C242.752 212.396 232.772 222.38 214.377 230.286C198.97 236.908 177.685 242.061 146.595 243.557L140.052 211.207C143.95 208.253 146.807 205.376 148.69 201.861C150.616 198.267 151.5 194.054 151.5 188.5C151.5 181.292 148.044 175.039 143.084 170.598C138.128 166.16 131.637 163.5 125.5 163.5C113.271 163.5 99.9996 173.106 100 189C100 201.417 106.644 208.536 111.437 211.258L104.962 243.272C74.2629 241.227 51.0478 235.117 34.3974 228.086C24.1504 223.759 16.3858 219.081 10.8926 214.784C5.41507 210.5 2.1518 206.56 0.977515 203.689C0.694599 202.998 0.493454 201.908 0.347633 200.551C0.200265 199.179 0.10475 197.486 0.0517341 195.559C-0.0543192 191.702 0.00987887 186.877 0.178687 181.746C0.516352 171.482 1.27493 159.965 1.94236 152.456L1.9824 151.999L2.44138 152Z" fill="#1B442F"/>
<path d="M243.008 105.402C246.509 122.905 247.513 123.929 250.016 153.958L250.033 154.166L249.898 154.324C242.602 162.877 232.286 172.182 213.571 179.342C198.885 184.96 179.039 189.25 151.441 190.834C151.478 190.083 151.5 189.306 151.5 188.5C151.5 181.292 148.044 175.039 143.084 170.598C138.128 166.16 131.637 163.5 125.5 163.5C113.272 163.5 99.9998 173.106 100 189C100 189.496 100.012 189.984 100.032 190.463C72.248 188.266 50.323 182.825 34.3263 176.527C23.8966 172.421 15.9752 167.947 10.591 163.762C7.89929 161.67 5.83063 159.642 4.40054 157.759C2.97584 155.883 2.15563 154.113 2.02456 152.542C1.91928 151.279 2.16018 148.56 2.59975 145.054C3.04235 141.524 3.69527 137.136 4.43862 132.496C5.92545 123.216 7.77463 112.91 9.02554 106.405L9.10366 106.002L9.51479 106L242.515 105L242.927 104.998L243.008 105.402Z" fill="#286145"/>
<path d="M10.0009 107C3.5 91.5 36.9884 84.8346 53.4884 83.0012C53.4884 83.0012 97.9888 80.5 127.489 80.5C158.989 80.5 199.989 83.0012 199.989 83.0012C225.489 85.5002 244.167 96.5 242 105.5C235.5 132.499 158.489 140.001 126.989 140.001C82.4888 140.001 17.7074 125.374 10.0009 107Z" fill="#3F8261" stroke="#3F8361"/>
<path d="M125.001 2.6776e-07C152.921 0.00215792 171.311 12.3373 182.708 26.9453C194.086 41.5292 198.501 58.3857 198.501 67.5V110.75C199.407 111.435 200.475 112.41 201.341 113.58C202.271 114.836 203.001 116.358 203.001 118.005C203.001 118.632 202.623 119.313 202.009 119.989C201.379 120.683 200.433 121.445 199.146 122.241C196.572 123.835 192.572 125.601 186.825 127.233C175.328 130.499 156.777 133.25 128.497 133C100.227 132.75 79.9382 130.499 66.7041 127.553C60.0907 126.08 55.2157 124.428 51.9814 122.752C50.3653 121.914 49.1356 121.059 48.3037 120.198C47.4738 119.339 47.0002 118.433 47 117.505C47 115.562 47.5226 113.831 48.4033 112.572C49.182 111.459 50.2594 110.696 51.501 110.533V67.4805L51.5029 67.4609C52.3427 56.7957 57.0037 39.9444 68.3086 25.749C79.6295 11.5337 97.6029 -0.00202928 125.001 2.6776e-07ZM125.5 27C109.535 27 98.3643 33.5273 90.8994 41.5977C83.4475 49.6541 79.6907 59.2435 78.5088 65.4063L78.5 65.4521V102.11L79.0977 101.99C95.0478 98.8002 114.133 97.925 131.302 98.2871C148.473 98.6493 163.689 100.248 171.896 101.989L172.5 102.117V65.4736L172.497 65.4473C171.984 60.5711 168.177 50.9751 160.558 42.6006C152.92 34.206 141.418 27 125.5 27Z" fill="#1A402D"/>
<path d="M335.844 134.297V212.5H322.362V134.297H335.844ZM420.138 134.297V212.5H406.656L371.583 156.479V212.5H358.102V134.297H371.583L406.764 190.425V134.297H420.138ZM472.259 134.297V212.5H458.885V134.297H472.259ZM496.805 134.297V145.039H434.554V134.297H496.805ZM563.804 201.812V212.5H522.285V201.812H563.804ZM526.099 134.297V212.5H512.617V134.297H526.099ZM558.379 166.953V177.48H522.285V166.953H558.379ZM563.535 134.297V145.039H522.285V134.297H563.535ZM640.363 172.539V202.402C639.253 203.87 637.517 205.482 635.153 207.236C632.826 208.955 629.729 210.441 625.861 211.694C621.994 212.948 617.178 213.574 611.413 213.574C606.507 213.574 602.014 212.751 597.932 211.104C593.85 209.421 590.323 206.968 587.351 203.745C584.414 200.522 582.141 196.602 580.529 191.982C578.918 187.327 578.112 182.028 578.112 176.084V170.659C578.112 164.751 578.846 159.487 580.314 154.868C581.818 150.213 583.967 146.274 586.76 143.052C589.553 139.829 592.919 137.394 596.857 135.747C600.832 134.064 605.326 133.223 610.339 133.223C616.748 133.223 622.048 134.297 626.237 136.445C630.463 138.558 633.721 141.494 636.013 145.254C638.304 149.014 639.755 153.311 640.363 158.145H627.15C626.721 155.423 625.879 152.988 624.626 150.84C623.409 148.691 621.654 147.008 619.362 145.791C617.106 144.538 614.17 143.911 610.554 143.911C607.438 143.911 604.699 144.502 602.336 145.684C599.973 146.865 598.003 148.602 596.428 150.894C594.888 153.185 593.724 155.978 592.937 159.272C592.149 162.567 591.755 166.326 591.755 170.552V176.084C591.755 180.381 592.202 184.194 593.098 187.524C594.029 190.854 595.354 193.665 597.072 195.957C598.827 198.249 600.957 199.985 603.464 201.167C605.97 202.313 608.799 202.886 611.95 202.886C615.03 202.886 617.554 202.635 619.523 202.134C621.493 201.597 623.05 200.97 624.196 200.254C625.378 199.502 626.291 198.786 626.936 198.105V182.583H610.661V172.539H640.363ZM660.795 134.297H688.456C694.4 134.297 699.467 135.192 703.656 136.982C707.846 138.773 711.05 141.423 713.271 144.932C715.526 148.405 716.654 152.702 716.654 157.822C716.654 161.725 715.938 165.163 714.506 168.135C713.074 171.107 711.05 173.613 708.437 175.654C705.823 177.66 702.707 179.217 699.091 180.327L695.009 182.314H670.141L670.033 171.626H688.671C691.894 171.626 694.579 171.053 696.728 169.907C698.876 168.761 700.487 167.204 701.562 165.234C702.672 163.229 703.227 160.973 703.227 158.467C703.227 155.745 702.689 153.382 701.615 151.377C700.577 149.336 698.965 147.778 696.781 146.704C694.597 145.594 691.822 145.039 688.456 145.039H674.276V212.5H660.795V134.297ZM705.429 212.5L687.06 177.373L701.186 177.319L719.823 211.802V212.5H705.429ZM766.036 144.717L742.672 212.5H728.546L757.979 134.297H767.003L766.036 144.717ZM785.587 212.5L762.169 144.717L761.148 134.297H770.226L799.767 212.5H785.587ZM784.459 183.496V194.185H741.92V183.496H784.459ZM814.021 134.297H841.683C847.627 134.297 852.693 135.192 856.883 136.982C861.072 138.773 864.277 141.423 866.497 144.932C868.753 148.405 869.881 152.702 869.881 157.822C869.881 161.725 869.165 165.163 867.732 168.135C866.3 171.107 864.277 173.613 861.663 175.654C859.049 177.66 855.934 179.217 852.317 180.327L848.235 182.314H823.367L823.26 171.626H841.897C845.12 171.626 847.806 171.053 849.954 169.907C852.103 168.761 853.714 167.204 854.788 165.234C855.898 163.229 856.453 160.973 856.453 158.467C856.453 155.745 855.916 153.382 854.842 151.377C853.803 149.336 852.192 147.778 850.008 146.704C847.824 145.594 845.049 145.039 841.683 145.039H827.503V212.5H814.021V134.297ZM858.655 212.5L840.286 177.373L854.412 177.319L873.05 211.802V212.5H858.655ZM939.995 201.812V212.5H898.477V201.812H939.995ZM902.29 134.297V212.5H888.809V134.297H902.29ZM934.57 166.953V177.48H898.477V166.953H934.57ZM939.727 134.297V145.039H898.477V134.297H939.727Z" fill="#1B432F"/>
<path d="M329.566 256.908C329.566 256.381 329.484 255.912 329.32 255.502C329.168 255.092 328.893 254.717 328.494 254.377C328.096 254.037 327.533 253.709 326.807 253.393C326.092 253.064 325.178 252.73 324.064 252.391C322.846 252.016 321.721 251.6 320.689 251.143C319.67 250.674 318.779 250.135 318.018 249.525C317.256 248.904 316.664 248.195 316.242 247.398C315.82 246.59 315.609 245.658 315.609 244.604C315.609 243.561 315.826 242.611 316.26 241.756C316.705 240.9 317.332 240.162 318.141 239.541C318.961 238.908 319.928 238.422 321.041 238.082C322.154 237.73 323.385 237.555 324.732 237.555C326.631 237.555 328.266 237.906 329.637 238.609C331.02 239.312 332.08 240.256 332.818 241.439C333.568 242.623 333.943 243.93 333.943 245.359H329.566C329.566 244.516 329.385 243.771 329.021 243.127C328.67 242.471 328.131 241.955 327.404 241.58C326.689 241.205 325.781 241.018 324.68 241.018C323.637 241.018 322.77 241.176 322.078 241.492C321.387 241.809 320.871 242.236 320.531 242.775C320.191 243.314 320.021 243.924 320.021 244.604C320.021 245.084 320.133 245.523 320.355 245.922C320.578 246.309 320.918 246.672 321.375 247.012C321.832 247.34 322.406 247.65 323.098 247.943C323.789 248.236 324.604 248.518 325.541 248.787C326.959 249.209 328.195 249.678 329.25 250.193C330.305 250.697 331.184 251.271 331.887 251.916C332.59 252.561 333.117 253.293 333.469 254.113C333.82 254.922 333.996 255.842 333.996 256.873C333.996 257.951 333.779 258.924 333.346 259.791C332.912 260.646 332.291 261.379 331.482 261.988C330.686 262.586 329.725 263.049 328.6 263.377C327.486 263.693 326.244 263.852 324.873 263.852C323.643 263.852 322.43 263.688 321.234 263.359C320.051 263.031 318.973 262.533 318 261.865C317.027 261.186 316.254 260.342 315.68 259.334C315.105 258.314 314.818 257.125 314.818 255.766H319.23C319.23 256.598 319.371 257.307 319.652 257.893C319.945 258.479 320.35 258.959 320.865 259.334C321.381 259.697 321.979 259.967 322.658 260.143C323.35 260.318 324.088 260.406 324.873 260.406C325.904 260.406 326.766 260.26 327.457 259.967C328.16 259.674 328.688 259.264 329.039 258.736C329.391 258.209 329.566 257.6 329.566 256.908ZM338.468 254.201V253.797C338.468 252.426 338.667 251.154 339.066 249.982C339.464 248.799 340.038 247.773 340.788 246.906C341.55 246.027 342.476 245.348 343.566 244.867C344.667 244.375 345.909 244.129 347.292 244.129C348.687 244.129 349.929 244.375 351.019 244.867C352.12 245.348 353.052 246.027 353.814 246.906C354.575 247.773 355.155 248.799 355.554 249.982C355.952 251.154 356.152 252.426 356.152 253.797V254.201C356.152 255.572 355.952 256.844 355.554 258.016C355.155 259.188 354.575 260.213 353.814 261.092C353.052 261.959 352.126 262.639 351.036 263.131C349.946 263.611 348.71 263.852 347.327 263.852C345.933 263.852 344.685 263.611 343.583 263.131C342.493 262.639 341.568 261.959 340.806 261.092C340.044 260.213 339.464 259.188 339.066 258.016C338.667 256.844 338.468 255.572 338.468 254.201ZM342.704 253.797V254.201C342.704 255.057 342.792 255.865 342.968 256.627C343.144 257.389 343.419 258.057 343.794 258.631C344.169 259.205 344.65 259.656 345.236 259.984C345.821 260.312 346.519 260.477 347.327 260.477C348.112 260.477 348.792 260.312 349.366 259.984C349.952 259.656 350.433 259.205 350.808 258.631C351.183 258.057 351.458 257.389 351.634 256.627C351.821 255.865 351.915 255.057 351.915 254.201V253.797C351.915 252.953 351.821 252.156 351.634 251.406C351.458 250.645 351.177 249.971 350.79 249.385C350.415 248.799 349.935 248.342 349.349 248.014C348.775 247.674 348.089 247.504 347.292 247.504C346.495 247.504 345.804 247.674 345.218 248.014C344.644 248.342 344.169 248.799 343.794 249.385C343.419 249.971 343.144 250.645 342.968 251.406C342.792 252.156 342.704 252.953 342.704 253.797ZM366.037 236.5V263.5H361.784V236.5H366.037ZM383.921 259.018V244.48H388.175V263.5H384.168L383.921 259.018ZM384.519 255.062L385.943 255.027C385.943 256.305 385.802 257.482 385.521 258.561C385.24 259.627 384.806 260.559 384.22 261.355C383.634 262.141 382.884 262.756 381.97 263.201C381.056 263.635 379.961 263.852 378.683 263.852C377.757 263.852 376.908 263.717 376.134 263.447C375.361 263.178 374.693 262.762 374.13 262.199C373.58 261.637 373.152 260.904 372.847 260.002C372.543 259.1 372.39 258.021 372.39 256.768V244.48H376.627V256.803C376.627 257.494 376.709 258.074 376.873 258.543C377.037 259 377.259 259.369 377.541 259.65C377.822 259.932 378.15 260.131 378.525 260.248C378.9 260.365 379.298 260.424 379.72 260.424C380.927 260.424 381.877 260.189 382.568 259.721C383.271 259.24 383.769 258.596 384.062 257.787C384.367 256.979 384.519 256.07 384.519 255.062ZM402.087 260.477C402.778 260.477 403.399 260.342 403.95 260.072C404.512 259.791 404.964 259.404 405.304 258.912C405.655 258.42 405.848 257.852 405.884 257.207H409.874C409.85 258.438 409.487 259.557 408.784 260.564C408.081 261.572 407.149 262.375 405.989 262.973C404.829 263.559 403.546 263.852 402.139 263.852C400.686 263.852 399.421 263.605 398.343 263.113C397.264 262.609 396.368 261.918 395.653 261.039C394.938 260.16 394.399 259.146 394.036 257.998C393.684 256.85 393.509 255.619 393.509 254.307V253.691C393.509 252.379 393.684 251.148 394.036 250C394.399 248.84 394.938 247.82 395.653 246.941C396.368 246.062 397.264 245.377 398.343 244.885C399.421 244.381 400.68 244.129 402.122 244.129C403.645 244.129 404.981 244.434 406.13 245.043C407.278 245.641 408.18 246.479 408.837 247.557C409.505 248.623 409.85 249.865 409.874 251.283H405.884C405.848 250.58 405.673 249.947 405.356 249.385C405.052 248.811 404.618 248.354 404.055 248.014C403.505 247.674 402.843 247.504 402.069 247.504C401.214 247.504 400.505 247.68 399.942 248.031C399.38 248.371 398.94 248.84 398.624 249.438C398.307 250.023 398.079 250.686 397.938 251.424C397.809 252.15 397.745 252.906 397.745 253.691V254.307C397.745 255.092 397.809 255.854 397.938 256.592C398.067 257.33 398.29 257.992 398.606 258.578C398.934 259.152 399.38 259.615 399.942 259.967C400.505 260.307 401.22 260.477 402.087 260.477ZM400.223 263.535H403.37L403.159 264.52C403.827 264.637 404.436 264.918 404.987 265.363C405.55 265.82 405.831 266.553 405.831 267.561C405.831 268.158 405.708 268.697 405.462 269.178C405.216 269.658 404.846 270.068 404.354 270.408C403.874 270.76 403.27 271.029 402.544 271.217C401.829 271.404 400.997 271.498 400.048 271.498L399.925 269.107C400.382 269.107 400.792 269.049 401.155 268.932C401.518 268.826 401.805 268.656 402.016 268.422C402.239 268.188 402.35 267.883 402.35 267.508C402.35 267.145 402.257 266.863 402.069 266.664C401.882 266.465 401.589 266.312 401.19 266.207C400.804 266.102 400.3 266.025 399.679 265.979L400.223 263.535ZM414.117 254.201V253.797C414.117 252.426 414.316 251.154 414.715 249.982C415.113 248.799 415.688 247.773 416.438 246.906C417.199 246.027 418.125 245.348 419.215 244.867C420.316 244.375 421.559 244.129 422.941 244.129C424.336 244.129 425.578 244.375 426.668 244.867C427.77 245.348 428.701 246.027 429.463 246.906C430.225 247.773 430.805 248.799 431.203 249.982C431.602 251.154 431.801 252.426 431.801 253.797V254.201C431.801 255.572 431.602 256.844 431.203 258.016C430.805 259.188 430.225 260.213 429.463 261.092C428.701 261.959 427.775 262.639 426.686 263.131C425.596 263.611 424.359 263.852 422.977 263.852C421.582 263.852 420.334 263.611 419.232 263.131C418.143 262.639 417.217 261.959 416.455 261.092C415.693 260.213 415.113 259.188 414.715 258.016C414.316 256.844 414.117 255.572 414.117 254.201ZM418.354 253.797V254.201C418.354 255.057 418.441 255.865 418.617 256.627C418.793 257.389 419.068 258.057 419.443 258.631C419.818 259.205 420.299 259.656 420.885 259.984C421.471 260.312 422.168 260.477 422.977 260.477C423.762 260.477 424.441 260.312 425.016 259.984C425.602 259.656 426.082 259.205 426.457 258.631C426.832 258.057 427.107 257.389 427.283 256.627C427.471 255.865 427.564 255.057 427.564 254.201V253.797C427.564 252.953 427.471 252.156 427.283 251.406C427.107 250.645 426.826 249.971 426.439 249.385C426.064 248.799 425.584 248.342 424.998 248.014C424.424 247.674 423.738 247.504 422.941 247.504C422.145 247.504 421.453 247.674 420.867 248.014C420.293 248.342 419.818 248.799 419.443 249.385C419.068 249.971 418.793 250.645 418.617 251.406C418.441 252.156 418.354 252.953 418.354 253.797ZM426.721 236.711L429.305 236.904C429.305 237.76 429.135 238.527 428.795 239.207C428.455 239.875 427.992 240.402 427.406 240.789C426.82 241.176 426.158 241.369 425.42 241.369C424.846 241.369 424.359 241.287 423.961 241.123C423.562 240.959 423.199 240.771 422.871 240.561C422.543 240.35 422.203 240.168 421.852 240.016C421.512 239.852 421.107 239.77 420.639 239.77C420.193 239.77 419.812 239.934 419.496 240.262C419.191 240.59 419.039 241.029 419.039 241.58L416.438 241.439C416.438 240.596 416.607 239.834 416.947 239.154C417.287 238.475 417.75 237.936 418.336 237.537C418.922 237.139 419.584 236.939 420.322 236.939C420.803 236.939 421.236 237.021 421.623 237.186C422.021 237.338 422.396 237.52 422.748 237.73C423.111 237.941 423.48 238.129 423.855 238.293C424.23 238.457 424.646 238.539 425.104 238.539C425.549 238.539 425.93 238.369 426.246 238.029C426.562 237.689 426.721 237.25 426.721 236.711ZM445.536 263.852C444.13 263.852 442.859 263.623 441.722 263.166C440.597 262.697 439.636 262.047 438.839 261.215C438.054 260.383 437.45 259.404 437.029 258.279C436.607 257.154 436.396 255.941 436.396 254.641V253.938C436.396 252.449 436.613 251.102 437.046 249.895C437.48 248.688 438.083 247.656 438.857 246.801C439.63 245.934 440.544 245.271 441.599 244.814C442.654 244.357 443.796 244.129 445.027 244.129C446.386 244.129 447.575 244.357 448.595 244.814C449.614 245.271 450.458 245.916 451.126 246.748C451.806 247.568 452.31 248.547 452.638 249.684C452.978 250.82 453.148 252.074 453.148 253.445V255.256H438.452V252.215H448.964V251.881C448.941 251.119 448.788 250.404 448.507 249.736C448.238 249.068 447.821 248.529 447.259 248.119C446.696 247.709 445.946 247.504 445.009 247.504C444.306 247.504 443.679 247.656 443.128 247.961C442.589 248.254 442.138 248.682 441.775 249.244C441.411 249.807 441.13 250.486 440.931 251.283C440.743 252.068 440.65 252.953 440.65 253.938V254.641C440.65 255.473 440.761 256.246 440.984 256.961C441.218 257.664 441.558 258.279 442.003 258.807C442.448 259.334 442.988 259.75 443.62 260.055C444.253 260.348 444.974 260.494 445.782 260.494C446.802 260.494 447.71 260.289 448.507 259.879C449.304 259.469 449.995 258.889 450.581 258.139L452.814 260.301C452.404 260.898 451.87 261.473 451.214 262.023C450.558 262.562 449.755 263.002 448.806 263.342C447.868 263.682 446.779 263.852 445.536 263.852ZM468.922 258.35C468.922 257.928 468.817 257.547 468.606 257.207C468.395 256.855 467.991 256.539 467.393 256.258C466.807 255.977 465.94 255.719 464.791 255.484C463.784 255.262 462.858 254.998 462.014 254.693C461.182 254.377 460.467 253.996 459.87 253.551C459.272 253.105 458.809 252.578 458.481 251.969C458.153 251.359 457.989 250.656 457.989 249.859C457.989 249.086 458.159 248.354 458.498 247.662C458.838 246.971 459.325 246.361 459.957 245.834C460.59 245.307 461.358 244.891 462.26 244.586C463.174 244.281 464.194 244.129 465.319 244.129C466.913 244.129 468.278 244.398 469.414 244.938C470.563 245.465 471.442 246.186 472.051 247.1C472.661 248.002 472.965 249.021 472.965 250.158H468.729C468.729 249.654 468.6 249.186 468.342 248.752C468.096 248.307 467.721 247.949 467.217 247.68C466.713 247.398 466.08 247.258 465.319 247.258C464.592 247.258 463.989 247.375 463.508 247.609C463.039 247.832 462.688 248.125 462.454 248.488C462.231 248.852 462.12 249.25 462.12 249.684C462.12 250 462.178 250.287 462.295 250.545C462.424 250.791 462.635 251.02 462.928 251.23C463.221 251.43 463.62 251.617 464.123 251.793C464.639 251.969 465.284 252.139 466.057 252.303C467.51 252.607 468.758 253 469.801 253.48C470.856 253.949 471.664 254.559 472.227 255.309C472.789 256.047 473.071 256.984 473.071 258.121C473.071 258.965 472.889 259.738 472.526 260.441C472.174 261.133 471.659 261.736 470.979 262.252C470.299 262.756 469.485 263.148 468.536 263.43C467.598 263.711 466.543 263.852 465.371 263.852C463.649 263.852 462.19 263.547 460.995 262.938C459.799 262.316 458.891 261.525 458.27 260.564C457.661 259.592 457.356 258.584 457.356 257.541H461.452C461.498 258.326 461.715 258.953 462.102 259.422C462.5 259.879 462.993 260.213 463.579 260.424C464.176 260.623 464.791 260.723 465.424 260.723C466.186 260.723 466.825 260.623 467.34 260.424C467.856 260.213 468.248 259.932 468.518 259.58C468.788 259.217 468.922 258.807 468.922 258.35ZM504.884 255.168H509.278C509.137 256.844 508.669 258.338 507.872 259.65C507.075 260.951 505.956 261.977 504.514 262.727C503.073 263.477 501.321 263.852 499.259 263.852C497.677 263.852 496.253 263.57 494.987 263.008C493.721 262.434 492.637 261.625 491.735 260.582C490.833 259.527 490.141 258.256 489.661 256.768C489.192 255.279 488.958 253.615 488.958 251.775V249.648C488.958 247.809 489.198 246.145 489.679 244.656C490.171 243.168 490.874 241.896 491.788 240.842C492.702 239.775 493.798 238.961 495.075 238.398C496.364 237.836 497.811 237.555 499.417 237.555C501.456 237.555 503.179 237.93 504.585 238.68C505.991 239.43 507.081 240.467 507.854 241.791C508.639 243.115 509.12 244.633 509.296 246.344H504.901C504.784 245.242 504.526 244.299 504.128 243.514C503.741 242.729 503.167 242.131 502.405 241.721C501.643 241.299 500.647 241.088 499.417 241.088C498.409 241.088 497.53 241.275 496.78 241.65C496.03 242.025 495.403 242.576 494.899 243.303C494.395 244.029 494.014 244.926 493.757 245.992C493.511 247.047 493.387 248.254 493.387 249.613V251.775C493.387 253.064 493.499 254.236 493.721 255.291C493.956 256.334 494.307 257.23 494.776 257.98C495.257 258.73 495.866 259.311 496.604 259.721C497.343 260.131 498.227 260.336 499.259 260.336C500.512 260.336 501.526 260.137 502.3 259.738C503.085 259.34 503.677 258.76 504.075 257.998C504.485 257.225 504.755 256.281 504.884 255.168ZM513.855 254.201V253.797C513.855 252.426 514.055 251.154 514.453 249.982C514.852 248.799 515.426 247.773 516.176 246.906C516.938 246.027 517.863 245.348 518.953 244.867C520.055 244.375 521.297 244.129 522.68 244.129C524.074 244.129 525.316 244.375 526.406 244.867C527.508 245.348 528.439 246.027 529.201 246.906C529.963 247.773 530.543 248.799 530.941 249.982C531.34 251.154 531.539 252.426 531.539 253.797V254.201C531.539 255.572 531.34 256.844 530.941 258.016C530.543 259.188 529.963 260.213 529.201 261.092C528.439 261.959 527.514 262.639 526.424 263.131C525.334 263.611 524.098 263.852 522.715 263.852C521.32 263.852 520.072 263.611 518.971 263.131C517.881 262.639 516.955 261.959 516.193 261.092C515.432 260.213 514.852 259.188 514.453 258.016C514.055 256.844 513.855 255.572 513.855 254.201ZM518.092 253.797V254.201C518.092 255.057 518.18 255.865 518.355 256.627C518.531 257.389 518.807 258.057 519.182 258.631C519.557 259.205 520.037 259.656 520.623 259.984C521.209 260.312 521.906 260.477 522.715 260.477C523.5 260.477 524.18 260.312 524.754 259.984C525.34 259.656 525.82 259.205 526.195 258.631C526.57 258.057 526.846 257.389 527.021 256.627C527.209 255.865 527.303 255.057 527.303 254.201V253.797C527.303 252.953 527.209 252.156 527.021 251.406C526.846 250.645 526.564 249.971 526.178 249.385C525.803 248.799 525.322 248.342 524.736 248.014C524.162 247.674 523.477 247.504 522.68 247.504C521.883 247.504 521.191 247.674 520.605 248.014C520.031 248.342 519.557 248.799 519.182 249.385C518.807 249.971 518.531 250.645 518.355 251.406C518.18 252.156 518.092 252.953 518.092 253.797ZM541.144 248.102V263.5H536.907V244.48H540.95L541.144 248.102ZM546.962 244.357L546.927 248.295C546.669 248.248 546.388 248.213 546.083 248.189C545.79 248.166 545.497 248.154 545.204 248.154C544.478 248.154 543.839 248.26 543.288 248.471C542.738 248.67 542.275 248.963 541.9 249.35C541.536 249.725 541.255 250.182 541.056 250.721C540.857 251.26 540.739 251.863 540.704 252.531L539.738 252.602C539.738 251.406 539.855 250.299 540.089 249.279C540.323 248.26 540.675 247.363 541.144 246.59C541.624 245.816 542.222 245.213 542.937 244.779C543.663 244.346 544.501 244.129 545.45 244.129C545.708 244.129 545.984 244.152 546.277 244.199C546.581 244.246 546.81 244.299 546.962 244.357ZM555.67 248.137V270.812H551.434V244.48H555.336L555.67 248.137ZM568.063 253.814V254.184C568.063 255.566 567.899 256.85 567.571 258.033C567.254 259.205 566.78 260.23 566.147 261.109C565.526 261.977 564.758 262.65 563.844 263.131C562.93 263.611 561.875 263.852 560.68 263.852C559.496 263.852 558.459 263.635 557.569 263.201C556.69 262.756 555.946 262.129 555.336 261.32C554.727 260.512 554.235 259.562 553.86 258.473C553.496 257.371 553.239 256.164 553.086 254.852V253.428C553.239 252.033 553.496 250.768 553.86 249.631C554.235 248.494 554.727 247.516 555.336 246.695C555.946 245.875 556.69 245.242 557.569 244.797C558.448 244.352 559.473 244.129 560.645 244.129C561.84 244.129 562.901 244.363 563.827 244.832C564.752 245.289 565.532 245.945 566.164 246.801C566.797 247.645 567.272 248.664 567.588 249.859C567.905 251.043 568.063 252.361 568.063 253.814ZM563.827 254.184V253.814C563.827 252.936 563.745 252.121 563.58 251.371C563.416 250.609 563.159 249.941 562.807 249.367C562.455 248.793 562.004 248.348 561.454 248.031C560.914 247.703 560.264 247.539 559.502 247.539C558.752 247.539 558.108 247.668 557.569 247.926C557.03 248.172 556.579 248.518 556.215 248.963C555.852 249.408 555.571 249.93 555.371 250.527C555.172 251.113 555.032 251.752 554.95 252.443V255.854C555.09 256.697 555.33 257.471 555.67 258.174C556.01 258.877 556.491 259.439 557.112 259.861C557.745 260.271 558.553 260.477 559.538 260.477C560.299 260.477 560.95 260.312 561.489 259.984C562.028 259.656 562.467 259.205 562.807 258.631C563.159 258.045 563.416 257.371 563.58 256.609C563.745 255.848 563.827 255.039 563.827 254.184ZM572.658 254.201V253.797C572.658 252.426 572.857 251.154 573.255 249.982C573.654 248.799 574.228 247.773 574.978 246.906C575.74 246.027 576.666 245.348 577.755 244.867C578.857 244.375 580.099 244.129 581.482 244.129C582.877 244.129 584.119 244.375 585.209 244.867C586.31 245.348 587.242 246.027 588.004 246.906C588.765 247.773 589.345 248.799 589.744 249.982C590.142 251.154 590.341 252.426 590.341 253.797V254.201C590.341 255.572 590.142 256.844 589.744 258.016C589.345 259.188 588.765 260.213 588.004 261.092C587.242 261.959 586.316 262.639 585.226 263.131C584.136 263.611 582.9 263.852 581.517 263.852C580.123 263.852 578.875 263.611 577.773 263.131C576.683 262.639 575.757 261.959 574.996 261.092C574.234 260.213 573.654 259.188 573.255 258.016C572.857 256.844 572.658 255.572 572.658 254.201ZM576.894 253.797V254.201C576.894 255.057 576.982 255.865 577.158 256.627C577.334 257.389 577.609 258.057 577.984 258.631C578.359 259.205 578.839 259.656 579.425 259.984C580.011 260.312 580.709 260.477 581.517 260.477C582.302 260.477 582.982 260.312 583.556 259.984C584.142 259.656 584.623 259.205 584.998 258.631C585.373 258.057 585.648 257.389 585.824 256.627C586.011 255.865 586.105 255.057 586.105 254.201V253.797C586.105 252.953 586.011 252.156 585.824 251.406C585.648 250.645 585.367 249.971 584.98 249.385C584.605 248.799 584.125 248.342 583.539 248.014C582.964 247.674 582.279 247.504 581.482 247.504C580.685 247.504 579.994 247.674 579.408 248.014C578.834 248.342 578.359 248.799 577.984 249.385C577.609 249.971 577.334 250.645 577.158 251.406C576.982 252.156 576.894 252.953 576.894 253.797ZM599.946 248.102V263.5H595.71V244.48H599.753L599.946 248.102ZM605.764 244.357L605.729 248.295C605.471 248.248 605.19 248.213 604.886 248.189C604.593 248.166 604.3 248.154 604.007 248.154C603.28 248.154 602.641 248.26 602.091 248.471C601.54 248.67 601.077 248.963 600.702 249.35C600.339 249.725 600.057 250.182 599.858 250.721C599.659 251.26 599.542 251.863 599.507 252.531L598.54 252.602C598.54 251.406 598.657 250.299 598.891 249.279C599.126 248.26 599.477 247.363 599.946 246.59C600.427 245.816 601.024 245.213 601.739 244.779C602.466 244.346 603.304 244.129 604.253 244.129C604.511 244.129 604.786 244.152 605.079 244.199C605.384 244.246 605.612 244.299 605.764 244.357ZM620.309 259.686V250.615C620.309 249.936 620.186 249.35 619.939 248.857C619.693 248.365 619.318 247.984 618.814 247.715C618.322 247.445 617.701 247.311 616.951 247.311C616.26 247.311 615.662 247.428 615.158 247.662C614.654 247.896 614.262 248.213 613.98 248.611C613.699 249.01 613.559 249.461 613.559 249.965H609.34C609.34 249.215 609.521 248.488 609.885 247.785C610.248 247.082 610.775 246.455 611.467 245.904C612.158 245.354 612.984 244.92 613.945 244.604C614.906 244.287 615.984 244.129 617.18 244.129C618.609 244.129 619.875 244.369 620.977 244.85C622.09 245.33 622.963 246.057 623.596 247.029C624.24 247.99 624.562 249.197 624.562 250.65V259.105C624.562 259.973 624.621 260.752 624.738 261.443C624.867 262.123 625.049 262.715 625.283 263.219V263.5H620.941C620.742 263.043 620.584 262.463 620.467 261.76C620.361 261.045 620.309 260.354 620.309 259.686ZM620.924 251.934L620.959 254.553H617.918C617.133 254.553 616.441 254.629 615.844 254.781C615.246 254.922 614.748 255.133 614.35 255.414C613.951 255.695 613.652 256.035 613.453 256.434C613.254 256.832 613.154 257.283 613.154 257.787C613.154 258.291 613.271 258.754 613.506 259.176C613.74 259.586 614.08 259.908 614.525 260.143C614.982 260.377 615.533 260.494 616.178 260.494C617.045 260.494 617.801 260.318 618.445 259.967C619.102 259.604 619.617 259.164 619.992 258.648C620.367 258.121 620.566 257.623 620.59 257.154L621.961 259.035C621.82 259.516 621.58 260.031 621.24 260.582C620.9 261.133 620.455 261.66 619.904 262.164C619.365 262.656 618.715 263.061 617.953 263.377C617.203 263.693 616.336 263.852 615.352 263.852C614.109 263.852 613.002 263.605 612.029 263.113C611.057 262.609 610.295 261.936 609.744 261.092C609.193 260.236 608.918 259.27 608.918 258.191C608.918 257.184 609.105 256.293 609.48 255.52C609.867 254.734 610.43 254.078 611.168 253.551C611.918 253.023 612.832 252.625 613.91 252.355C614.988 252.074 616.219 251.934 617.602 251.934H620.924ZM639.511 244.48V247.574H628.788V244.48H639.511ZM631.882 239.822H636.118V258.244C636.118 258.83 636.2 259.281 636.364 259.598C636.54 259.902 636.78 260.107 637.085 260.213C637.39 260.318 637.747 260.371 638.157 260.371C638.45 260.371 638.732 260.354 639.001 260.318C639.271 260.283 639.487 260.248 639.652 260.213L639.669 263.447C639.318 263.553 638.907 263.646 638.439 263.729C637.982 263.811 637.454 263.852 636.857 263.852C635.884 263.852 635.023 263.682 634.273 263.342C633.523 262.99 632.937 262.422 632.515 261.637C632.093 260.852 631.882 259.809 631.882 258.508V239.822ZM649.116 244.48V263.5H644.862V244.48H649.116ZM644.58 239.488C644.58 238.844 644.791 238.311 645.213 237.889C645.647 237.455 646.245 237.238 647.006 237.238C647.756 237.238 648.348 237.455 648.782 237.889C649.215 238.311 649.432 238.844 649.432 239.488C649.432 240.121 649.215 240.648 648.782 241.07C648.348 241.492 647.756 241.703 647.006 241.703C646.245 241.703 645.647 241.492 645.213 241.07C644.791 240.648 644.58 240.121 644.58 239.488ZM661.744 260.143L666.402 244.48H670.796L664.187 263.5H661.445L661.744 260.143ZM658.175 244.48L662.921 260.213L663.15 263.5H660.408L653.763 244.48H658.175ZM685.657 259.686V250.615C685.657 249.936 685.534 249.35 685.288 248.857C685.042 248.365 684.667 247.984 684.163 247.715C683.671 247.445 683.05 247.311 682.3 247.311C681.608 247.311 681.011 247.428 680.507 247.662C680.003 247.896 679.61 248.213 679.329 248.611C679.048 249.01 678.907 249.461 678.907 249.965H674.688C674.688 249.215 674.87 248.488 675.233 247.785C675.596 247.082 676.124 246.455 676.815 245.904C677.507 245.354 678.333 244.92 679.294 244.604C680.255 244.287 681.333 244.129 682.528 244.129C683.958 244.129 685.223 244.369 686.325 244.85C687.438 245.33 688.311 246.057 688.944 247.029C689.589 247.99 689.911 249.197 689.911 250.65V259.105C689.911 259.973 689.97 260.752 690.087 261.443C690.216 262.123 690.397 262.715 690.632 263.219V263.5H686.29C686.091 263.043 685.932 262.463 685.815 261.76C685.71 261.045 685.657 260.354 685.657 259.686ZM686.272 251.934L686.307 254.553H683.266C682.481 254.553 681.79 254.629 681.192 254.781C680.595 254.922 680.096 255.133 679.698 255.414C679.3 255.695 679.001 256.035 678.802 256.434C678.602 256.832 678.503 257.283 678.503 257.787C678.503 258.291 678.62 258.754 678.854 259.176C679.089 259.586 679.429 259.908 679.874 260.143C680.331 260.377 680.882 260.494 681.526 260.494C682.393 260.494 683.149 260.318 683.794 259.967C684.45 259.604 684.966 259.164 685.341 258.648C685.716 258.121 685.915 257.623 685.938 257.154L687.309 259.035C687.169 259.516 686.929 260.031 686.589 260.582C686.249 261.133 685.804 261.66 685.253 262.164C684.714 262.656 684.063 263.061 683.302 263.377C682.552 263.693 681.684 263.852 680.7 263.852C679.458 263.852 678.35 263.605 677.378 263.113C676.405 262.609 675.643 261.936 675.093 261.092C674.542 260.236 674.266 259.27 674.266 258.191C674.266 257.184 674.454 256.293 674.829 255.52C675.216 254.734 675.778 254.078 676.516 253.551C677.266 253.023 678.18 252.625 679.259 252.355C680.337 252.074 681.567 251.934 682.95 251.934H686.272ZM706.811 258.35C706.811 257.928 706.705 257.547 706.494 257.207C706.283 256.855 705.879 256.539 705.281 256.258C704.695 255.977 703.828 255.719 702.68 255.484C701.672 255.262 700.746 254.998 699.902 254.693C699.07 254.377 698.355 253.996 697.758 253.551C697.16 253.105 696.697 252.578 696.369 251.969C696.041 251.359 695.877 250.656 695.877 249.859C695.877 249.086 696.047 248.354 696.387 247.662C696.727 246.971 697.213 246.361 697.846 245.834C698.479 245.307 699.246 244.891 700.148 244.586C701.062 244.281 702.082 244.129 703.207 244.129C704.801 244.129 706.166 244.398 707.303 244.938C708.451 245.465 709.33 246.186 709.939 247.1C710.549 248.002 710.854 249.021 710.854 250.158H706.617C706.617 249.654 706.488 249.186 706.23 248.752C705.984 248.307 705.609 247.949 705.105 247.68C704.602 247.398 703.969 247.258 703.207 247.258C702.48 247.258 701.877 247.375 701.396 247.609C700.928 247.832 700.576 248.125 700.342 248.488C700.119 248.852 700.008 249.25 700.008 249.684C700.008 250 700.066 250.287 700.184 250.545C700.312 250.791 700.523 251.02 700.816 251.23C701.109 251.43 701.508 251.617 702.012 251.793C702.527 251.969 703.172 252.139 703.945 252.303C705.398 252.607 706.646 253 707.689 253.48C708.744 253.949 709.553 254.559 710.115 255.309C710.678 256.047 710.959 256.984 710.959 258.121C710.959 258.965 710.777 259.738 710.414 260.441C710.062 261.133 709.547 261.736 708.867 262.252C708.188 262.756 707.373 263.148 706.424 263.43C705.486 263.711 704.432 263.852 703.26 263.852C701.537 263.852 700.078 263.547 698.883 262.938C697.688 262.316 696.779 261.525 696.158 260.564C695.549 259.592 695.244 258.584 695.244 257.541H699.34C699.387 258.326 699.604 258.953 699.99 259.422C700.389 259.879 700.881 260.213 701.467 260.424C702.064 260.623 702.68 260.723 703.312 260.723C704.074 260.723 704.713 260.623 705.229 260.424C705.744 260.213 706.137 259.932 706.406 259.58C706.676 259.217 706.811 258.807 706.811 258.35Z" fill="#1B432F"/>
</svg>
